#!OML:ASF X:\für Bonn\!DataBase\2005_08_10_Bjorn_Final\c3d\bjorn.ASF
:FULLY-SPECIFIED
:DEGREES
65
root 0.566806 11.5035 3.73175 -182.602 -1.23328 175.937
lowerback 25.4564 2.42691 -0.154606
upperback 11.3025 0.267232 -1.52836
thorax -1.63029 -0.982426 -1.59995
lowerneck -13.9957 -0.862513 1.89343
upperneck -3.4536 -2.03312 0.475985
head 1.2511 -1.27538 -0.283015
rclavicle 2.66868e-014 -1.91827e-014
rhumerus 83.7115 -1.73366 -81.5225
rradius 6.14576
rwrist 48.8155
rhand -16.6494 10.2267
rfingers 7.12502
rthumb 9.57358 -19.5358
lclavicle 2.66868e-014 -1.91827e-014
lhumerus 88.43 -5.75897 81.6341
lradius 6.66696
lwrist -56.563
lhand -12.6104 -6.10556
lfingers 7.12502
lthumb 13.4687 23.4389
rfemur -67.6695 -26.3024 8.46211
rtibia 127.931
rfoot -33.1314 33.5058
rtoes -19.8607
lfemur -66.5848 20.2112 -19.1992
ltibia 128.553
lfoot -30.631 -18.8852
ltoes -26.621
66
root 0.563811 11.2967 3.72647 -182.891 -1.31216 176.054
lowerback 25.6453 2.40855 0.0126469
upperback 11.52 0.20387 -1.41837
thorax -1.47725 -1.04317 -1.56308
lowerneck -14.4038 -0.755447 1.84068
upperneck -3.52993 -1.92325 0.448276
head 1.29759 -1.23461 -0.281161
rclavicle 7.45443e-015 -2.3059e-014
rhumerus 83.6419 -1.68849 -81.3714
rradius 6.14911
rwrist 48.6935
rhand -16.6379 10.2008
rfingers 7.12502
rthumb 9.58471 -19.5612
lclavicle 7.45443e-015 -2.3059e-014
lhumerus 88.3182 -5.59791 81.6592
lradius 6.44965
lwrist -56.224
lhand -12.7792 -6.06085
lfingers 7.12502
lthumb 13.306 23.4944
rfemur -68.4061 -28.3258 8.0976
rtibia 129.618
rfoot -33.3831 34.6348
rtoes -20.09
lfemur -67.3547 21.7456 -18.7314
ltibia 130.239
lfoot -30.8361 -20.052
ltoes -26.3228
67
root 0.560344 11.0939 3.72102 -183.231 -1.38213 176.155
lowerback 25.9137 2.39653 0.209715
upperback 11.7063 0.155014 -1.34673
thorax -1.39406 -1.09384 -1.58787
lowerneck -14.6429 -0.660836 1.88007
upperneck -3.72783 -1.84135 0.387912
head 1.27337 -1.21211 -0.303638
rclavicle 7.45443e-015 5.1684e-015
rhumerus 83.4859 -1.69418 -81.2537
rradius 6.19756
rwrist 48.8699
rhand -16.4794 10.0774
rfingers 7.12502
rthumb 9.73765 -19.6775
lclavicle 7.45443e-015 5.1684e-015
lhumerus 88.0898 -5.50515 81.657
lradius 6.28085
lwrist -55.7892
lhand -12.9523 -6.03524
lfingers 7.12502
lthumb 13.1391 23.5308
rfemur -69.0196 -30.5918 7.61797
rtibia 131.258
rfoot -33.8028 35.7769
rtoes -20.5959
lfemur -68.013 23.409 -18.2452
ltibia 131.876
lfoot -31.1134 -21.1633
ltoes -26.1648
68
root 0.55679 10.8958 3.7147 -183.579 -1.45009 176.256
lowerback 26.1743 2.38207 0.393647
upperback 11.899 0.09799 -1.26072
thorax -1.29962 -1.15049 -1.58741
lowerneck -14.8376 -0.551327 1.92001
upperneck -4.0179 -1.74547 0.284845
head 1.21076 -1.18803 -0.337624
rclavicle 4.57205e-015 -2.24627e-014
rhumerus 83.3304 -1.67028 -81.1199
rradius 6.23291
rwrist 49.0843
rhand -16.343 9.86374
rfingers 7.12502
rthumb 9.86925 -19.8849
lclavicle 4.57205e-015 -2.24627e-014
lhumerus 87.8254 -5.42928 81.6772
lradius 6.18296
lwrist -56.0584
lhand -13.0412 -5.90397
lfingers 7.12502
lthumb 13.0535 23.6676
rfemur -69.5302 -33.0901 7.01732
rtibia 132.834
rfoot -34.1225 37.2126
rtoes -20.6325
lfemur -68.6298 25.2105 -17.7232
ltibia 133.456
lfoot -31.3411 -22.364
ltoes -25.8883
69
root 0.553323 10.7059 3.70801 -183.945 -1.50863 176.319
lowerback 26.4924 2.37083 0.554337
upperback 12.0525 0.0453744 -1.19695
thorax -1.27516 -1.20289 -1.59777
lowerneck -14.9018 -0.441733 1.99505
upperneck -4.40113 -1.65407 0.141019
head 1.09471 -1.1697 -0.388399
rclavicle 1.8487e-014 -1.12313e-014
rhumerus 83.0489 -1.62839 -81.0027
rradius 6.32339
rwrist 49.3073
rhand -16.1482 9.63889
rfingers 7.12502
rthumb 10.0572 -20.1008
lclavicle 1.8487e-014 -1.12313e-014
lhumerus 87.4653 -5.35699 81.6907
lradius 6.15394
lwrist -56.8452
lhand -13.0339 -5.70108
lfingers 7.12502
lthumb 13.0605 23.87
rfemur -69.9157 -35.7848 6.27314
rtibia 134.331
rfoot -34.6401 38.6378
rtoes -20.9855
lfemur -69.1779 27.1401 -17.2419
ltibia 134.962
lfoot -31.7339 -23.2656
ltoes -26.2688
70
root 0.549621 10.5233 3.7014 -184.321 -1.57934 176.346
lowerback 26.8234 2.36164 0.682986
upperback 12.199 -0.0117965 -1.14056
thorax -1.26428 -1.2586 -1.59605
lowerneck -14.942 -0.338359 2.09816
upperneck -4.80397 -1.57732 -0.0341946
head 0.968239 -1.16066 -0.454091
rclavicle -2.88238e-015 -2.06736e-014
rhumerus 82.7285 -1.58512 -80.8844
rradius 6.43822
rwrist 49.5669
rhand -15.9449 9.38158
rfingers 7.12502
rthumb 10.2534 -20.3485
lclavicle -2.88238e-015 -2.06736e-014
lhumerus 87.0805 -5.33349 81.7124
lradius 6.21568
lwrist -57.3447
lhand -12.5244 -5.50801
lfingers 7.12502
lthumb 13.5517 24.031
rfemur -70.1536 -38.7551 5.32815
rtibia 135.753
rfoot -35.2726 40.2025
rtoes -21.2123
lfemur -69.6509 29.1641 -16.7527
ltibia 136.407
lfoot -32.1034 -24.2853
ltoes -26.2987
